<?xml version="1.0" standalone="no"?>
<!DOCTYPE svg PUBLIC "-//W3C//DTD SVG 1.1//EN" "http://www.w3.org/Graphics/SVG/1.1/DTD/svg11.dtd">
<!--Generator: Xara Designer (www.xara.com), SVG filter version: 6.1.0.16-->
<svg stroke-width="0.501" stroke-linejoin="bevel" fill-rule="evenodd" xmlns:xlink="http://www.w3.org/1999/xlink" xmlns="http://www.w3.org/2000/svg" version="1.1" overflow="visible" width="15.001pt" height="15pt" viewBox="0 0 15.001 15">
 <defs>
	</defs>
 <g id="Document" fill="none" stroke="black" font-family="Times New Roman" font-size="16" transform="scale(1 -1)">
  <g id="Spread" transform="translate(0 -15)">
   <g id="Layer 1">
    <g id="Group" stroke-linecap="round" stroke="none" fill="#404040">
     <path d="M 0,8.25 L 0,6.751 L 15.001,6.751 L 15.001,8.25 L 0,8.25 Z" stroke-width="0.75" stroke-linejoin="miter" marker-start="none" marker-end="none" stroke-miterlimit="79.8403193612775"/>
     <path d="M 3.926,9.925 L 0,11.632 L 0,12.578 L 3.926,14.277 L 3.926,13.164 L 1.188,12.117 L 3.926,11.031 L 3.926,9.925 Z" fill-rule="nonzero" stroke-linejoin="round" stroke-width="0.375" marker-start="none" marker-end="none" stroke-miterlimit="79.8403193612775"/>
     <path d="M 9.68,9.273 L 8.423,9.273 L 7.923,10.574 L 5.633,10.574 L 5.161,9.273 L 3.934,9.273 L 6.165,15 L 7.387,15 L 9.68,9.273 Z M 7.551,11.539 L 6.762,13.664 L 5.989,11.539 L 7.551,11.539 Z" fill-rule="nonzero" stroke-linejoin="round" stroke-width="0.375" marker-start="none" marker-end="none" stroke-miterlimit="79.8403193612775"/>
     <path d="M 9.93,15 L 12.219,15 C 12.672,15 13.01,14.981 13.233,14.943 C 13.456,14.905 13.655,14.827 13.831,14.707 C 14.006,14.587 14.153,14.427 14.27,14.228 C 14.387,14.029 14.446,13.806 14.446,13.558 C 14.446,13.29 14.373,13.044 14.229,12.82 C 14.084,12.596 13.889,12.428 13.641,12.316 C 13.99,12.215 14.258,12.041 14.446,11.797 C 14.633,11.552 14.727,11.264 14.727,10.933 C 14.727,10.673 14.667,10.419 14.545,10.173 C 14.424,9.927 14.259,9.731 14.049,9.584 C 13.84,9.436 13.581,9.346 13.274,9.312 C 13.081,9.291 12.616,9.278 11.879,9.273 L 9.93,9.273 L 9.93,15 Z M 11.086,14.047 L 11.086,12.722 L 11.844,12.722 C 12.295,12.722 12.575,12.729 12.684,12.742 C 12.882,12.765 13.038,12.834 13.151,12.947 C 13.264,13.06 13.321,13.209 13.321,13.394 C 13.321,13.571 13.272,13.715 13.174,13.826 C 13.077,13.937 12.932,14.004 12.739,14.027 C 12.624,14.04 12.295,14.047 11.75,14.047 L 11.086,14.047 Z M 11.086,11.769 L 11.086,10.238 L 12.157,10.238 C 12.573,10.238 12.838,10.25 12.95,10.273 C 13.122,10.304 13.262,10.38 13.37,10.502 C 13.478,10.623 13.532,10.785 13.532,10.988 C 13.532,11.16 13.49,11.306 13.407,11.425 C 13.323,11.545 13.203,11.632 13.045,11.687 C 12.888,11.742 12.546,11.769 12.02,11.769 L 11.086,11.769 Z" fill-rule="nonzero" stroke-linejoin="round" stroke-width="0.375" marker-start="none" marker-end="none" stroke-miterlimit="79.8403193612775"/>
     <path d="M 0.465,5.727 L 2.754,5.727 C 3.207,5.727 3.545,5.708 3.768,5.67 C 3.991,5.632 4.19,5.554 4.366,5.434 C 4.541,5.314 4.688,5.154 4.805,4.955 C 4.922,4.756 4.981,4.533 4.981,4.285 C 4.981,4.017 4.908,3.771 4.764,3.547 C 4.619,3.323 4.424,3.155 4.176,3.043 C 4.525,2.942 4.793,2.768 4.981,2.524 C 5.168,2.279 5.262,1.991 5.262,1.66 C 5.262,1.4 5.202,1.146 5.08,0.9 C 4.959,0.654 4.794,0.458 4.584,0.311 C 4.375,0.163 4.116,0.073 3.809,0.039 C 3.616,0.018 3.151,0.005 2.414,0 L 0.465,0 L 0.465,5.727 Z M 1.621,4.774 L 1.621,3.449 L 2.379,3.449 C 2.83,3.449 3.11,3.456 3.219,3.469 C 3.417,3.492 3.573,3.561 3.686,3.674 C 3.799,3.787 3.856,3.936 3.856,4.121 C 3.856,4.298 3.807,4.442 3.709,4.553 C 3.612,4.664 3.467,4.731 3.274,4.754 C 3.159,4.767 2.83,4.774 2.285,4.774 L 1.621,4.774 Z M 1.621,2.496 L 1.621,0.965 L 2.692,0.965 C 3.108,0.965 3.373,0.977 3.485,1 C 3.657,1.031 3.797,1.107 3.905,1.229 C 4.013,1.35 4.067,1.512 4.067,1.715 C 4.067,1.887 4.025,2.033 3.942,2.152 C 3.858,2.272 3.738,2.359 3.58,2.414 C 3.423,2.469 3.081,2.496 2.555,2.496 L 1.621,2.496 Z" fill-rule="nonzero" stroke-linejoin="round" stroke-width="0.375" marker-start="none" marker-end="none" stroke-miterlimit="79.8403193612775"/>
     <path d="M 5.875,0 L 5.875,5.727 L 8.309,5.727 C 8.921,5.727 9.365,5.675 9.643,5.572 C 9.92,5.47 10.142,5.287 10.309,5.024 C 10.475,4.76 10.559,4.46 10.559,4.121 C 10.559,3.691 10.432,3.337 10.18,3.057 C 9.927,2.777 9.55,2.6 9.047,2.527 C 9.297,2.382 9.503,2.222 9.666,2.047 C 9.829,1.873 10.048,1.563 10.324,1.117 L 11.024,0 L 9.641,0 L 8.805,1.246 C 8.508,1.691 8.305,1.972 8.195,2.088 C 8.086,2.204 7.97,2.283 7.848,2.326 C 7.725,2.369 7.531,2.391 7.266,2.391 L 7.031,2.391 L 7.031,0 L 5.875,0 Z M 7.031,3.305 L 7.887,3.305 C 8.442,3.305 8.788,3.328 8.926,3.375 C 9.064,3.422 9.172,3.503 9.25,3.617 C 9.328,3.732 9.367,3.875 9.367,4.047 C 9.367,4.24 9.316,4.395 9.213,4.514 C 9.11,4.632 8.965,4.707 8.778,4.738 C 8.684,4.751 8.403,4.758 7.934,4.758 L 7.031,4.758 L 7.031,3.305 Z" fill-rule="nonzero" stroke-linejoin="round" stroke-width="0.375" marker-start="none" marker-end="none" stroke-miterlimit="79.8403193612775"/>
     <path d="M 11.07,0.648 L 11.07,1.754 L 13.813,2.832 L 11.07,3.899 L 11.07,4.996 L 15,3.297 L 15,2.359 L 11.07,0.648 Z" fill-rule="nonzero" stroke-linejoin="round" stroke-width="0.375" marker-start="none" marker-end="none" stroke-miterlimit="79.8403193612775"/>
    </g>
   </g>
  </g>
 </g>
</svg>
